<svg version="1.1" x="0" y="0" id="jv232ji63" diagram-revision="11" width="1970.05" height="1020.4000000000001" xmlns="http://www.w3.org/2000/svg" xmlns:xml="http://www.w3.org/XML/1998/namespace" xmlns:xlink="http://www.w3.org/1999/xlink">
  <defs/>
  <g id="Lane-jv232ji6-ko131" transform="translate(5,5)">
    <desc>root/bpmn/lane?version=3&amp;author=Cinergix</desc>
    <g id="image">
      <g id="graphics">
        <rect x="0.75" y="0.75" width="1958.6123690605164" height="148.5" fill="#ffffff" stroke="#19938b" stroke-width="1.5" stroke-linejoin="round" stroke-linecap="round"/>
      </g>
      <text x="0" y="0" width="33.75" height="88.25" transform="translate(1.5,119.1) rotate(-90)">
        <tspan x="4.15" y="13.920019531249999" style="font-family:Lato;font-size:14px;fill:#4b4b4b;font-weight:bold;">Market_Sales</tspan>
        <tspan x="21.75" y="33.92001953125" style="font-family:Lato;font-size:14px;fill:#4b4b4b;font-weight:bold;">Domain</tspan>
      </text>
    </g>
  </g>
  <g id="Start Event-jv232ji6-ko134" transform="translate(85,64.94999999999999)">
    <desc>root/bpmn/eventStart?version=1&amp;author=Cinergix</desc>
    <g id="image">
      <g id="graphics">
        <circle cx="22.5" cy="22.5" r="21.75" fill="#48c9b3" stroke="#19938b" stroke-width="1.5" stroke-linejoin="round" stroke-linecap="round"/>
      </g>
    </g>
    <text x="0" y="0" width="95.95" height="29.75" transform="translate(-25.45,9.6)">
      <tspan x="0.5" y="17.92001953125" style="font-family:Lato;font-size:14px;fill:#4b4b4b;">Offer Accepted</tspan>
    </text>
  </g>
  <g id="Activity-jv232ji6-ko136" transform="translate(190,50)">
    <desc>root/bpmn/activity?version=2&amp;author=Cinergix</desc>
    <g id="image">
      <g id="graphics">
        <rect x="0.75" y="0.75" width="128.5" height="73.5" rx="7.5" fill="#48c9b3" stroke="#19938b" stroke-width="1.5" stroke-dasharray="100,0" stroke-linejoin="round" stroke-linecap="round"/>
      </g>
    </g>
    <text x="0" y="0" width="115.75" height="29.75" transform="translate(7.1,24.6)">
      <tspan x="7" y="17.87001953125" style="font-family:Lato;font-size:14px;fill:#4b4b4b;">Manage Contact</tspan>
    </text>
  </g>
  <g id="Connector-jv232ji6-ko151" transform="translate(-20,-80)">
    <g id="graphics">
      <path d="M 150 169.95000000000005 L 180 169.95000000000005 L 180 170 L 210 170 " fill="none" stroke="#19938b" stroke-width="1.5" stroke-dasharray="5,5"/>
    </g>
    <g id="fromIcon" transform="translate(150,169.95) rotate(-90)">
      <circle fill="#FFFFFF" stroke="#19938b" cx="0" cy="7.5" r="7" style="stroke:#19938b;stroke-width:1.5;" stroke-width="1.5"/>
    </g>
    <g id="toIcon" transform="translate(210,170) rotate(90)">
      <metadata id="metadata3057">
        <aaa:RDF xmlns:aaa="http://www.w3.org/1999/02/22-rdf-syntax-ns#"/>
      </metadata>
      <aaa:namedview pagecolor="#ffffff" bordercolor="#666666" borderopacity="1" objecttolerance="10" gridtolerance="10" guidetolerance="10" aab:pageopacity="0" aab:pageshadow="2" aab:window-width="1366" aab:window-height="706" id="namedview3053" showgrid="true" aab:zoom="5.6568543" aab:cx="35.742573" aab:cy="39.38026" aab:window-x="-8" aab:window-y="-8" aab:window-maximized="1" aab:current-layer="Layer_1" xmlns:aaa="http://sodipodi.sourceforge.net/DTD/sodipodi-0.dtd" xmlns:aab="http://www.inkscape.org/namespaces/inkscape"/>
      <polygon points="0,0 8,8 -8,8 " id="polygon3051" transform="translate(0.00390625,0.71874995)" style="stroke-width:1.5;fill:#19938b;stroke:#19938b;" stroke="#19938b" stroke-width="1.5" fill="#19938b"/>
    </g>
  </g>
  <g id="Lane-jv232ji6-ko152" transform="translate(5,150)">
    <desc>root/bpmn/lane?version=3&amp;author=Cinergix</desc>
    <g id="image">
      <g id="graphics">
        <rect x="0.75" y="0.75" width="1958.6123690605164" height="353.5" fill="#ffffff" stroke="#19938b" stroke-width="1.5" stroke-linejoin="round" stroke-linecap="round"/>
      </g>
      <text x="0" y="0" width="33.75" height="65.05" transform="translate(1.5,210) rotate(-90)">
        <tspan x="4" y="13.920019531249999" style="font-family:Lato;font-size:14px;fill:#4b4b4b;font-weight:bold;">Customer</tspan>
        <tspan x="10" y="33.92001953125" style="font-family:Lato;font-size:14px;fill:#4b4b4b;font-weight:bold;">Domain</tspan>
      </text>
    </g>
  </g>
  <g id="Activity-jv232ji6-ko154" transform="translate(190,384.95)">
    <desc>root/bpmn/activity?version=2&amp;author=Cinergix</desc>
    <g id="image">
      <g id="graphics">
        <rect x="0.75" y="0.75" width="128.5" height="73.5" rx="7.5" fill="#48c9b3" stroke="#19938b" stroke-width="1.5" stroke-dasharray="100,0" stroke-linejoin="round" stroke-linecap="round"/>
      </g>
    </g>
    <text x="0" y="0" width="125.7" height="48.75" transform="translate(2.1,15.1)">
      <tspan x="7.1" y="17.92001953125" style="font-family:Lato;font-size:14px;fill:#4b4b4b;">Acquire Customer</tspan>
      <tspan x="48" y="36.92001953125" style="font-family:Lato;font-size:14px;fill:#4b4b4b;">Data</tspan>
    </text>
  </g>
  <g id="Connector-jv232ji6-ko163" transform="translate(-20,-80)">
    <g id="graphics">
      <path d="M 275 205 L 275 464.95000000000005 " fill="none" stroke="#19938b" stroke-width="1.5" stroke-dasharray="5,5" mask="url(#TextboxMask-Connector-jv232ji6-ko163)"/>
    </g>
    <g id="toIcon" transform="translate(275,464.95) rotate(180)">
      <metadata id="metadata3057">
        <aaa:RDF xmlns:aaa="http://www.w3.org/1999/02/22-rdf-syntax-ns#"/>
      </metadata>
      <aaa:namedview pagecolor="#ffffff" bordercolor="#666666" borderopacity="1" objecttolerance="10" gridtolerance="10" guidetolerance="10" aab:pageopacity="0" aab:pageshadow="2" aab:window-width="1366" aab:window-height="706" id="namedview3053" showgrid="true" aab:zoom="5.6568543" aab:cx="35.742573" aab:cy="39.38026" aab:window-x="-8" aab:window-y="-8" aab:window-maximized="1" aab:current-layer="Layer_1" xmlns:aaa="http://sodipodi.sourceforge.net/DTD/sodipodi-0.dtd" xmlns:aab="http://www.inkscape.org/namespaces/inkscape"/>
      <polygon points="0,0 8,8 -8,8 " id="polygon3051" transform="translate(0.00390625,0.71874995)" style="stroke-width:1.5;fill:#19938b;stroke:#19938b;" stroke="#19938b" stroke-width="1.5" fill="#19938b"/>
    </g>
    <text x="0" y="0" width="132.05" height="25.75" transform="translate(208.95,363.8)">
      <tspan x="5" y="17.92001953125" style="font-family:Lato;font-size:14px;fill:#4b4b4b;">Customer identified</tspan>
    </text>
    <mask id="TextboxMask-Connector-jv232ji6-ko163" maskUnits="userSpaceOnUse" x="0" y="0" width="2000" height="2000">
      <rect x="0" y="0" width="2000" height="2000" style="fill:white;"/>
      <rect x="0" y="0" width="132.05" height="25.75" transform="translate(208.95,363.8)"/>
    </mask>
  </g>
  <g id="Activity-jv232ji6-ko190" transform="translate(410,384.95)">
    <desc>root/bpmn/activity?version=2&amp;author=Cinergix</desc>
    <g id="image">
      <g id="graphics">
        <rect x="0.75" y="0.75" width="128.5" height="73.5" rx="7.5" fill="#48c9b3" stroke="#19938b" stroke-width="1.5" stroke-dasharray="100,0" stroke-linejoin="round" stroke-linecap="round"/>
      </g>
    </g>
    <text x="0" y="0" width="115.6" height="29.75" transform="translate(7.2,24.6)">
      <tspan x="7" y="17.92001953125" style="font-family:Lato;font-size:14px;fill:#4b4b4b;">Authorise Credit</tspan>
    </text>
  </g>
  <g id="Activity-jv232ji6-ko194" transform="translate(410,197.45)">
    <desc>root/bpmn/activity?version=2&amp;author=Cinergix</desc>
    <g id="image">
      <g id="graphics">
        <rect x="0.75" y="0.75" width="128.5" height="73.5" rx="7.5" fill="#48c9b3" stroke="#19938b" stroke-width="1.5" stroke-dasharray="100,0" stroke-linejoin="round" stroke-linecap="round"/>
      </g>
    </g>
    <text x="0" y="0" width="114.4" height="67.75" transform="translate(7.75,5.6)">
      <tspan x="24.35" y="17.92001953125" style="font-family:Lato;font-size:14px;fill:#4b4b4b;">Determine</tspan>
      <tspan x="7" y="36.92001953125" style="font-family:Lato;font-size:14px;fill:#4b4b4b;">Customer Order</tspan>
      <tspan x="26.25" y="55.92001953125" style="font-family:Lato;font-size:14px;fill:#4b4b4b;">Feasibility</tspan>
    </text>
  </g>
  <g id="Activity-jv232ji6-ko197" transform="translate(630,195)">
    <desc>root/bpmn/activity?version=2&amp;author=Cinergix</desc>
    <g id="image">
      <g id="graphics">
        <rect x="0.75" y="0.75" width="128.5" height="73.5" rx="7.5" fill="#48c9b3" stroke="#19938b" stroke-width="1.5" stroke-dasharray="100,0" stroke-linejoin="round" stroke-linecap="round"/>
      </g>
    </g>
    <text x="0" y="0" width="108.45" height="48.75" transform="translate(10.75,15.1)">
      <tspan x="7" y="17.87001953125" style="font-family:Lato;font-size:14px;fill:#4b4b4b;">issue Customer</tspan>
      <tspan x="32.85" y="36.87001953125" style="font-family:Lato;font-size:14px;fill:#4b4b4b;">Orders</tspan>
    </text>
  </g>
  <g id="Data Store-jv232ji6-ko204" transform="translate(649.95,394.95)">
    <desc>root/bpmn/dataStore?version=1&amp;author=Cinergix</desc>
    <g id="image" transform="scale(1.1363636016845704,1)">
      <path vector-effect="non-scaling-stroke" fill="#48c9b3" stroke="#19938b" stroke-miterlimit="10" d="M88,9c0-4.971-19.699-9-44-9C19.699,0,0,4.029,0,9&#xD;&#xA;&#x9;c0,0.253,0.064,0.502,0.164,0.75H0v42.625h0.117C0.047,52.582,0,52.79,0,53c0,4.971,19.699,9,44,9c24.301,0,44-4.029,44-9&#xD;&#xA;&#x9;c0-0.21-0.049-0.418-0.117-0.625H88V9.75h-0.164C87.936,9.502,88,9.253,88,9z" style="stroke-width:1.5;fill:#48c9b3;stroke:#19938b;stroke-dasharray:none;" stroke-width="1.5" stroke-dasharray="none"/>
      <g>
        <path vector-effect="non-scaling-stroke" fill="#48c9b3" stroke="#19938b" stroke-miterlimit="10" d="M88,16.896c0,4.971-19.699,9-44,9s-44-4.029-44-9" style="stroke-width:1.5;fill:#48c9b3;stroke:#19938b;stroke-dasharray:none;" stroke-width="1.5" stroke-dasharray="none"/>
        <path vector-effect="non-scaling-stroke" fill="#48c9b3" stroke="#19938b" stroke-miterlimit="10" d="M88,12.896c0,4.971-19.699,9-44,9s-44-4.029-44-9" style="stroke-width:1.5;fill:#48c9b3;stroke:#19938b;stroke-dasharray:none;" stroke-width="1.5" stroke-dasharray="none"/>
        <path vector-effect="non-scaling-stroke" fill="#48c9b3" stroke="#19938b" stroke-miterlimit="10" d="M88,9.271c0,4.971-19.699,9-44,9s-44-4.029-44-9" style="stroke-width:1.5;fill:#48c9b3;stroke:#19938b;stroke-dasharray:none;" stroke-width="1.5" stroke-dasharray="none"/>
      </g>
    </g>
    <text x="0" y="0" width="90.65" height="67.75" transform="translate(4.65,-0.85)">
      <tspan x="15.25" y="17.87001953125" style="font-family:Lato;font-size:14px;fill:#4b4b4b;">Customer</tspan>
      <tspan x="7" y="36.87001953125" style="font-family:Lato;font-size:14px;fill:#4b4b4b;">Subscription</tspan>
      <tspan x="15.65" y="55.87001953125" style="font-family:Lato;font-size:14px;fill:#4b4b4b;">Inventory</tspan>
    </text>
  </g>
  <g id="Activity-jv232ji6-ko212" transform="translate(865,199.95)">
    <desc>root/bpmn/activity?version=2&amp;author=Cinergix</desc>
    <g id="image">
      <g id="graphics">
        <rect x="0.75" y="0.75" width="128.5" height="73.5" rx="7.5" fill="#48c9b3" stroke="#19938b" stroke-width="1.5" stroke-dasharray="100,0" stroke-linejoin="round" stroke-linecap="round"/>
      </g>
    </g>
    <text x="0" y="0" width="114.65" height="67.75" transform="translate(7.65,5.6)">
      <tspan x="7" y="17.92001953125" style="font-family:Lato;font-size:14px;fill:#4b4b4b;">Track &amp; Manage</tspan>
      <tspan x="7.15" y="36.92001953125" style="font-family:Lato;font-size:14px;fill:#4b4b4b;">Customer Order</tspan>
      <tspan x="29.75" y="55.92001953125" style="font-family:Lato;font-size:14px;fill:#4b4b4b;">Handling</tspan>
    </text>
  </g>
  <g id="Lane-jv232ji6-ko217" transform="translate(5,500)">
    <desc>root/bpmn/lane?version=3&amp;author=Cinergix</desc>
    <g id="image">
      <g id="graphics">
        <rect x="0.75" y="0.75" width="1958.6123690605164" height="248.50000000000006" fill="#ffffff" stroke="#19938b" stroke-width="1.5" stroke-linejoin="round" stroke-linecap="round"/>
      </g>
      <text x="0" y="0" width="16.75" height="101.2" transform="translate(5.6,175.6) rotate(-90)">
        <tspan x="3.25" y="13.870019531250001" style="font-family:Lato;font-size:14px;fill:#4b4b4b;font-weight:bold;">Service Domain</tspan>
      </text>
    </g>
  </g>
  <g id="Activity-jv232ji6-ko218" transform="translate(1095,199.95)">
    <desc>root/bpmn/activity?version=2&amp;author=Cinergix</desc>
    <g id="image">
      <g id="graphics">
        <rect x="0.75" y="0.75" width="128.5" height="73.5" rx="7.5" fill="#48c9b3" stroke="#19938b" stroke-width="1.5" stroke-dasharray="100,0" stroke-linejoin="round" stroke-linecap="round"/>
      </g>
    </g>
    <text x="0" y="0" width="114.4" height="48.75" transform="translate(7.75,15.1)">
      <tspan x="27.25" y="17.92001953125" style="font-family:Lato;font-size:14px;fill:#4b4b4b;">Complete</tspan>
      <tspan x="7" y="36.92001953125" style="font-family:Lato;font-size:14px;fill:#4b4b4b;">Customer Order</tspan>
    </text>
  </g>
  <g id="Activity-jv232ji6-ko222" transform="translate(1320,197.45)">
    <desc>root/bpmn/activity?version=2&amp;author=Cinergix</desc>
    <g id="image">
      <g id="graphics">
        <rect x="0.75" y="0.75" width="128.5" height="73.5" rx="7.5" fill="#48c9b3" stroke="#19938b" stroke-width="1.5" stroke-dasharray="100,0" stroke-linejoin="round" stroke-linecap="round"/>
      </g>
    </g>
    <text x="0" y="0" width="111.8" height="48.75" transform="translate(9.1,15.1)">
      <tspan x="7" y="17.92001953125" style="font-family:Lato;font-size:14px;fill:#4b4b4b;">Close Customer</tspan>
      <tspan x="37.5" y="36.92001953125" style="font-family:Lato;font-size:14px;fill:#4b4b4b;">Order</tspan>
    </text>
  </g>
  <g id="Activity-jv232ji6-ko257" transform="translate(1540,199.95)">
    <desc>root/bpmn/activity?version=2&amp;author=Cinergix</desc>
    <g id="image">
      <g id="graphics">
        <rect x="0.75" y="0.75" width="128.5" height="73.5" rx="7.5" fill="#48c9b3" stroke="#19938b" stroke-width="1.5" stroke-dasharray="100,0" stroke-linejoin="round" stroke-linecap="round"/>
      </g>
    </g>
    <text x="0" y="0" width="118.95" height="48.75" transform="translate(5.5,15.1)">
      <tspan x="7" y="17.92001953125" style="font-family:Lato;font-size:14px;fill:#4b4b4b;">Create Customer</tspan>
      <tspan x="26" y="36.92001953125" style="font-family:Lato;font-size:14px;fill:#4b4b4b;">Bill Invoice</tspan>
    </text>
  </g>
  <g id="End Event-jv232ji6-ko260" transform="translate(1785,190)">
    <desc>root/bpmn/eventEnd?version=1&amp;author=Cinergix</desc>
    <g id="image">
      <g id="graphics">
        <circle cx="22.5" cy="22.5" r="21.75" fill="#48c9b3" stroke="#19938b" stroke-width="1.5" stroke-linejoin="round" stroke-linecap="round"/>
        <circle cx="22.5" cy="22.5" r="16.75" fill="none" stroke="#19938b" stroke-width="1.5" stroke-linejoin="round" stroke-linecap="round"/>
        <circle cx="22.5" cy="22.5" r="19.25" fill="none" stroke="#19938b" stroke-width="5" stroke-linejoin="round" stroke-linecap="round"/>
      </g>
    </g>
  </g>
  <g id="End Event-jv232ji6-ko263" transform="translate(1890,195)">
    <desc>root/bpmn/eventEnd?version=1&amp;author=Cinergix</desc>
    <g id="image">
      <g id="graphics">
        <circle cx="22.5" cy="22.5" r="21.75" fill="#48c9b3" stroke="#19938b" stroke-width="1.5" stroke-linejoin="round" stroke-linecap="round"/>
        <circle cx="22.5" cy="22.5" r="16.75" fill="none" stroke="#19938b" stroke-width="1.5" stroke-linejoin="round" stroke-linecap="round"/>
        <circle cx="22.5" cy="22.5" r="19.25" fill="none" stroke="#19938b" stroke-width="5" stroke-linejoin="round" stroke-linecap="round"/>
      </g>
    </g>
  </g>
  <g id="Activity-jv232ji6-ko266" transform="translate(1675,355)">
    <desc>root/bpmn/activity?version=2&amp;author=Cinergix</desc>
    <g id="image">
      <g id="graphics">
        <rect x="0.75" y="0.75" width="128.5" height="73.5" rx="7.5" fill="#48c9b3" stroke="#19938b" stroke-width="1.5" stroke-dasharray="100,0" stroke-linejoin="round" stroke-linecap="round"/>
      </g>
    </g>
    <text x="0" y="0" width="86.15" height="67.75" transform="translate(21.9,5.6)">
      <tspan x="17.9" y="17.87001953125" style="font-family:Lato;font-size:14px;fill:#4b4b4b;">Validate</tspan>
      <tspan x="13" y="36.87001953125" style="font-family:Lato;font-size:14px;fill:#4b4b4b;">Customer</tspan>
      <tspan x="7" y="55.87001953125" style="font-family:Lato;font-size:14px;fill:#4b4b4b;">Satisfaction</tspan>
    </text>
  </g>
  <g id="Data Store-jv232ji6-ko272" transform="translate(660,635)">
    <desc>root/bpmn/dataStore?version=1&amp;author=Cinergix</desc>
    <g id="image">
      <path vector-effect="non-scaling-stroke" fill="#48c9b3" stroke="#19938b" stroke-miterlimit="10" d="M88,9c0-4.971-19.699-9-44-9C19.699,0,0,4.029,0,9&#xD;&#xA;&#x9;c0,0.253,0.064,0.502,0.164,0.75H0v42.625h0.117C0.047,52.582,0,52.79,0,53c0,4.971,19.699,9,44,9c24.301,0,44-4.029,44-9&#xD;&#xA;&#x9;c0-0.21-0.049-0.418-0.117-0.625H88V9.75h-0.164C87.936,9.502,88,9.253,88,9z" style="stroke-width:1.5;fill:#48c9b3;stroke:#19938b;stroke-dasharray:none;" stroke-width="1.5" stroke-dasharray="none"/>
      <g>
        <path vector-effect="non-scaling-stroke" fill="#48c9b3" stroke="#19938b" stroke-miterlimit="10" d="M88,16.896c0,4.971-19.699,9-44,9s-44-4.029-44-9" style="stroke-width:1.5;fill:#48c9b3;stroke:#19938b;stroke-dasharray:none;" stroke-width="1.5" stroke-dasharray="none"/>
        <path vector-effect="non-scaling-stroke" fill="#48c9b3" stroke="#19938b" stroke-miterlimit="10" d="M88,12.896c0,4.971-19.699,9-44,9s-44-4.029-44-9" style="stroke-width:1.5;fill:#48c9b3;stroke:#19938b;stroke-dasharray:none;" stroke-width="1.5" stroke-dasharray="none"/>
        <path vector-effect="non-scaling-stroke" fill="#48c9b3" stroke="#19938b" stroke-miterlimit="10" d="M88,9.271c0,4.971-19.699,9-44,9s-44-4.029-44-9" style="stroke-width:1.5;fill:#48c9b3;stroke:#19938b;stroke-dasharray:none;" stroke-width="1.5" stroke-dasharray="none"/>
      </g>
    </g>
    <text x="0" y="0" width="73.45" height="48.75" transform="translate(7.25,8.6)">
      <tspan x="14.25" y="17.87001953125" style="font-family:Lato;font-size:14px;fill:#4b4b4b;">Service</tspan>
      <tspan x="7" y="36.87001953125" style="font-family:Lato;font-size:14px;fill:#4b4b4b;">Inventory</tspan>
    </text>
  </g>
  <g id="Activity-jv232ji6-ko275" transform="translate(804.95,525)">
    <desc>root/bpmn/activity?version=2&amp;author=Cinergix</desc>
    <g id="image">
      <g id="graphics">
        <rect x="0.75" y="0.75" width="128.5" height="73.5" rx="7.5" fill="#48c9b3" stroke="#19938b" stroke-width="1.5" stroke-dasharray="100,0" stroke-linejoin="round" stroke-linecap="round"/>
      </g>
    </g>
    <text x="0" y="0" width="93" height="48.75" transform="translate(18.5,15.1)">
      <tspan x="7" y="17.87001953125" style="font-family:Lato;font-size:14px;fill:#4b4b4b;">issue Service</tspan>
      <tspan x="25.15" y="36.87001953125" style="font-family:Lato;font-size:14px;fill:#4b4b4b;">Orders</tspan>
    </text>
  </g>
  <g id="Activity-jv232ji6-ko278" transform="translate(910,635)">
    <desc>root/bpmn/activity?version=2&amp;author=Cinergix</desc>
    <g id="image">
      <g id="graphics">
        <rect x="0.75" y="0.75" width="128.5" height="73.5" rx="7.5" fill="#48c9b3" stroke="#19938b" stroke-width="1.5" stroke-dasharray="100,0" stroke-linejoin="round" stroke-linecap="round"/>
      </g>
    </g>
    <text x="0" y="0" width="114.65" height="67.75" transform="translate(7.65,5.6)">
      <tspan x="7" y="17.87001953125" style="font-family:Lato;font-size:14px;fill:#4b4b4b;">Track &amp; Manage</tspan>
      <tspan x="35" y="36.87001953125" style="font-family:Lato;font-size:14px;fill:#4b4b4b;">Service</tspan>
      <tspan x="19.5" y="55.87001953125" style="font-family:Lato;font-size:14px;fill:#4b4b4b;">Provisioning</tspan>
    </text>
  </g>
  <g id="Activity-jv232ji6-ko289" transform="translate(1085.5,525)">
    <desc>root/bpmn/activity?version=2&amp;author=Cinergix</desc>
    <g id="image">
      <g id="graphics">
        <rect x="0.75" y="0.75" width="128.5" height="73.5" rx="7.5" fill="#48c9b3" stroke="#19938b" stroke-width="1.5" stroke-dasharray="100,0" stroke-linejoin="round" stroke-linecap="round"/>
      </g>
    </g>
    <text x="0" y="0" width="115.25" height="86.75" transform="translate(7.35,-3.85)">
      <tspan x="7" y="17.87001953125" style="font-family:Lato;font-size:14px;fill:#4b4b4b;">Allocate Specific</tspan>
      <tspan x="35.25" y="36.87001953125" style="font-family:Lato;font-size:14px;fill:#4b4b4b;">Service</tspan>
      <tspan x="14.4" y="55.87001953125" style="font-family:Lato;font-size:14px;fill:#4b4b4b;">Parameters to</tspan>
      <tspan x="32.25" y="74.87001953125" style="font-family:Lato;font-size:14px;fill:#4b4b4b;">Services</tspan>
    </text>
  </g>
  <g id="Activity-jv232ji6-ko292" transform="translate(1283.5,525)">
    <desc>root/bpmn/activity?version=2&amp;author=Cinergix</desc>
    <g id="image">
      <g id="graphics">
        <rect x="0.75" y="0.75" width="128.5" height="73.5" rx="7.5" fill="#48c9b3" stroke="#19938b" stroke-width="1.5" stroke-dasharray="100,0" stroke-linejoin="round" stroke-linecap="round"/>
      </g>
    </g>
    <text x="0" y="0" width="119.75" height="67.75" transform="translate(5.1,5.6)">
      <tspan x="25.4" y="17.87001953125" style="font-family:Lato;font-size:14px;fill:#4b4b4b;">Implement,</tspan>
      <tspan x="22.75" y="36.87001953125" style="font-family:Lato;font-size:14px;fill:#4b4b4b;">Configure &amp;</tspan>
      <tspan x="7" y="55.87001953125" style="font-family:Lato;font-size:14px;fill:#4b4b4b;">Activate Services</tspan>
    </text>
  </g>
  <g id="Activity-jv232ji6-ko295" transform="translate(1487,525)">
    <desc>root/bpmn/activity?version=2&amp;author=Cinergix</desc>
    <g id="image">
      <g id="graphics">
        <rect x="0.75" y="0.75" width="128.5" height="73.5" rx="7.5" fill="#48c9b3" stroke="#19938b" stroke-width="1.5" stroke-dasharray="100,0" stroke-linejoin="round" stroke-linecap="round"/>
      </g>
    </g>
    <text x="0" y="0" width="122.45" height="48.75" transform="translate(3.75,15.1)">
      <tspan x="7" y="17.87001953125" style="font-family:Lato;font-size:14px;fill:#4b4b4b;">Test Services End</tspan>
      <tspan x="41" y="36.87001953125" style="font-family:Lato;font-size:14px;fill:#4b4b4b;">to End</tspan>
    </text>
  </g>
  <g id="Activity-jv232ji6-ko298" transform="translate(1690.5,525)">
    <desc>root/bpmn/activity?version=2&amp;author=Cinergix</desc>
    <g id="image">
      <g id="graphics">
        <rect x="0.75" y="0.75" width="128.5" height="73.5" rx="7.5" fill="#48c9b3" stroke="#19938b" stroke-width="1.5" stroke-dasharray="100,0" stroke-linejoin="round" stroke-linecap="round"/>
      </g>
    </g>
    <text x="0" y="0" width="96.4" height="48.75" transform="translate(16.75,15.1)">
      <tspan x="7" y="17.87001953125" style="font-family:Lato;font-size:14px;fill:#4b4b4b;">Close Service</tspan>
      <tspan x="29.85" y="36.87001953125" style="font-family:Lato;font-size:14px;fill:#4b4b4b;">Order</tspan>
    </text>
  </g>
  <g id="End Event-jv232ji6-ko301" transform="translate(1888.5,535)">
    <desc>root/bpmn/eventEnd?version=1&amp;author=Cinergix</desc>
    <g id="image">
      <g id="graphics">
        <circle cx="22.5" cy="22.5" r="21.75" fill="#48c9b3" stroke="#19938b" stroke-width="1.5" stroke-linejoin="round" stroke-linecap="round"/>
        <circle cx="22.5" cy="22.5" r="16.75" fill="none" stroke="#19938b" stroke-width="1.5" stroke-linejoin="round" stroke-linecap="round"/>
        <circle cx="22.5" cy="22.5" r="19.25" fill="none" stroke="#19938b" stroke-width="5" stroke-linejoin="round" stroke-linecap="round"/>
      </g>
    </g>
  </g>
  <g id="Connector-jv232ji6-ko310" transform="translate(-20,-80)">
    <g id="graphics">
      <path d="M 1690 319.95000000000005 L 1747.5204545454544 319.95000000000005 L 1747.5204545454544 295 L 1805.040909090909 295 " fill="none" stroke="#19938b" stroke-width="1.5" mask="url(#TextboxMask-Connector-jv232ji6-ko310)"/>
    </g>
    <g id="toIcon" transform="translate(1805,295) rotate(90)">
      <metadata id="metadata3057">
        <aaa:RDF xmlns:aaa="http://www.w3.org/1999/02/22-rdf-syntax-ns#"/>
      </metadata>
      <aaa:namedview pagecolor="#ffffff" bordercolor="#666666" borderopacity="1" objecttolerance="10" gridtolerance="10" guidetolerance="10" aab:pageopacity="0" aab:pageshadow="2" aab:window-width="1366" aab:window-height="706" id="namedview3053" showgrid="true" aab:zoom="5.6568543" aab:cx="35.742573" aab:cy="39.38026" aab:window-x="-8" aab:window-y="-8" aab:window-maximized="1" aab:current-layer="Layer_1" xmlns:aaa="http://sodipodi.sourceforge.net/DTD/sodipodi-0.dtd" xmlns:aab="http://www.inkscape.org/namespaces/inkscape"/>
      <polygon points="0,0 8,8 -8,8 " id="polygon3051" transform="translate(0.00390625,0.71874995)" style="stroke-width:1.5;fill:#19938b;stroke:#19938b;" stroke="#19938b" stroke-width="1.5" fill="#19938b"/>
    </g>
    <text x="0" y="0" width="120.8" height="25.75" transform="translate(1687.1,292.95)">
      <tspan x="5" y="17.92001953125" style="font-family:Lato;font-size:14px;fill:#4b4b4b;">Invoice Submitted</tspan>
    </text>
    <mask id="TextboxMask-Connector-jv232ji6-ko310" maskUnits="userSpaceOnUse" x="0" y="0" width="2000" height="2000">
      <rect x="0" y="0" width="2000" height="2000" style="fill:white;"/>
      <rect x="0" y="0" width="120.8" height="25.75" transform="translate(1687.1,292.95)"/>
    </mask>
  </g>
  <g id="Connector-jv232ji6-ko312" transform="translate(-20,-80)">
    <g id="graphics">
      <path d="M 1405 277.45000000000005 L 1405 255.00000000000014 L 1935.040909090909 255.00000000000014 L 1935.040909090909 275.0000000000001 " fill="none" stroke="#19938b" stroke-width="1.5" mask="url(#TextboxMask-Connector-jv232ji6-ko312)"/>
    </g>
    <g id="toIcon" transform="translate(1935,275) rotate(180)">
      <metadata id="metadata3057">
        <aaa:RDF xmlns:aaa="http://www.w3.org/1999/02/22-rdf-syntax-ns#"/>
      </metadata>
      <aaa:namedview pagecolor="#ffffff" bordercolor="#666666" borderopacity="1" objecttolerance="10" gridtolerance="10" guidetolerance="10" aab:pageopacity="0" aab:pageshadow="2" aab:window-width="1366" aab:window-height="706" id="namedview3053" showgrid="true" aab:zoom="5.6568543" aab:cx="35.742573" aab:cy="39.38026" aab:window-x="-8" aab:window-y="-8" aab:window-maximized="1" aab:current-layer="Layer_1" xmlns:aaa="http://sodipodi.sourceforge.net/DTD/sodipodi-0.dtd" xmlns:aab="http://www.inkscape.org/namespaces/inkscape"/>
      <polygon points="0,0 8,8 -8,8 " id="polygon3051" transform="translate(0.00390625,0.71874995)" style="stroke-width:1.5;fill:#19938b;stroke:#19938b;" stroke="#19938b" stroke-width="1.5" fill="#19938b"/>
    </g>
    <text x="0" y="0" width="196.4" height="25.75" transform="translate(1661.75,242.1)">
      <tspan x="5" y="17.87001953125" style="font-family:Lato;font-size:14px;fill:#4b4b4b;">Invoice Received by Customer</tspan>
    </text>
    <mask id="TextboxMask-Connector-jv232ji6-ko312" maskUnits="userSpaceOnUse" x="0" y="0" width="2000" height="2000">
      <rect x="0" y="0" width="2000" height="2000" style="fill:white;"/>
      <rect x="0" y="0" width="196.4" height="25.75" transform="translate(1661.75,242.1)"/>
    </mask>
  </g>
  <g id="Lane-jv232ji6-ko357" transform="translate(5,745.45)">
    <desc>root/bpmn/lane?version=3&amp;author=Cinergix</desc>
    <g id="image">
      <g id="graphics">
        <rect x="0.75" y="0.75" width="1958.536313533783" height="268.1" fill="#ffffff" stroke="#19938b" stroke-width="1.5" stroke-linejoin="round" stroke-linecap="round"/>
      </g>
      <text x="0" y="0" width="33.75" height="61.6" transform="translate(1.5,165.6) rotate(-90)">
        <tspan x="3.5" y="13.920019531249999" style="font-family:Lato;font-size:14px;fill:#4b4b4b;font-weight:bold;">Resource</tspan>
        <tspan x="8.1" y="33.92001953125" style="font-family:Lato;font-size:14px;fill:#4b4b4b;font-weight:bold;">Domain</tspan>
      </text>
    </g>
  </g>
  <g id="Data Store-jv232ji6-ko358" transform="translate(520,834.95)">
    <desc>root/bpmn/dataStore?version=1&amp;author=Cinergix</desc>
    <g id="image">
      <path vector-effect="non-scaling-stroke" fill="#48c9b3" stroke="#19938b" stroke-miterlimit="10" d="M88,9c0-4.971-19.699-9-44-9C19.699,0,0,4.029,0,9&#xD;&#xA;&#x9;c0,0.253,0.064,0.502,0.164,0.75H0v42.625h0.117C0.047,52.582,0,52.79,0,53c0,4.971,19.699,9,44,9c24.301,0,44-4.029,44-9&#xD;&#xA;&#x9;c0-0.21-0.049-0.418-0.117-0.625H88V9.75h-0.164C87.936,9.502,88,9.253,88,9z" style="stroke-width:1.5;fill:#48c9b3;stroke:#19938b;stroke-dasharray:none;" stroke-width="1.5" stroke-dasharray="none"/>
      <g>
        <path vector-effect="non-scaling-stroke" fill="#48c9b3" stroke="#19938b" stroke-miterlimit="10" d="M88,16.896c0,4.971-19.699,9-44,9s-44-4.029-44-9" style="stroke-width:1.5;fill:#48c9b3;stroke:#19938b;stroke-dasharray:none;" stroke-width="1.5" stroke-dasharray="none"/>
        <path vector-effect="non-scaling-stroke" fill="#48c9b3" stroke="#19938b" stroke-miterlimit="10" d="M88,12.896c0,4.971-19.699,9-44,9s-44-4.029-44-9" style="stroke-width:1.5;fill:#48c9b3;stroke:#19938b;stroke-dasharray:none;" stroke-width="1.5" stroke-dasharray="none"/>
        <path vector-effect="non-scaling-stroke" fill="#48c9b3" stroke="#19938b" stroke-miterlimit="10" d="M88,9.271c0,4.971-19.699,9-44,9s-44-4.029-44-9" style="stroke-width:1.5;fill:#48c9b3;stroke:#19938b;stroke-dasharray:none;" stroke-width="1.5" stroke-dasharray="none"/>
      </g>
    </g>
    <text x="0" y="0" width="73.45" height="48.75" transform="translate(7.25,8.6)">
      <tspan x="8.1" y="17.92001953125" style="font-family:Lato;font-size:14px;fill:#4b4b4b;">Resource</tspan>
      <tspan x="7" y="36.92001953125" style="font-family:Lato;font-size:14px;fill:#4b4b4b;">Inventory</tspan>
    </text>
  </g>
  <g id="Activity-jv232ji6-ko362" transform="translate(775,789.95)">
    <desc>root/bpmn/activity?version=2&amp;author=Cinergix</desc>
    <g id="image">
      <g id="graphics">
        <rect x="0.75" y="0.75" width="128.5" height="73.5" rx="7.5" fill="#48c9b3" stroke="#19938b" stroke-width="1.5" stroke-dasharray="100,0" stroke-linejoin="round" stroke-linecap="round"/>
      </g>
    </g>
    <text x="0" y="0" width="105.95" height="48.75" transform="translate(12,15.1)">
      <tspan x="7" y="17.92001953125" style="font-family:Lato;font-size:14px;fill:#4b4b4b;">Issue Resource</tspan>
      <tspan x="31.6" y="36.92001953125" style="font-family:Lato;font-size:14px;fill:#4b4b4b;">Orders</tspan>
    </text>
  </g>
  <g id="Activity-jv232ji6-ko368" transform="translate(940,905)">
    <desc>root/bpmn/activity?version=2&amp;author=Cinergix</desc>
    <g id="image">
      <g id="graphics">
        <rect x="0.75" y="0.75" width="128.5" height="73.5" rx="7.5" fill="#48c9b3" stroke="#19938b" stroke-width="1.5" stroke-dasharray="100,0" stroke-linejoin="round" stroke-linecap="round"/>
      </g>
    </g>
    <text x="0" y="0" width="114.65" height="67.75" transform="translate(7.65,5.6)">
      <tspan x="7" y="17.87001953125" style="font-family:Lato;font-size:14px;fill:#4b4b4b;">Track &amp; Manage</tspan>
      <tspan x="28.75" y="36.92001953125" style="font-family:Lato;font-size:14px;fill:#4b4b4b;">Resource</tspan>
      <tspan x="19.5" y="55.92001953125" style="font-family:Lato;font-size:14px;fill:#4b4b4b;">Provisioning</tspan>
    </text>
  </g>
  <g id="Connector-jv3p623r-ko384" transform="translate(-20,-80)">
    <g id="graphics">
      <path d="M 560 317.45000000000005 L 605.0204545454545 317.45000000000005 L 605.0204545454545 315.04090909090905 L 650.040909090909 315.04090909090905 " fill="none" stroke="#19938b" stroke-width="1.5" stroke-dasharray="5,5"/>
    </g>
    <g id="toIcon" transform="translate(650,315) rotate(90)">
      <metadata id="metadata3057">
        <aaa:RDF xmlns:aaa="http://www.w3.org/1999/02/22-rdf-syntax-ns#"/>
      </metadata>
      <aaa:namedview pagecolor="#ffffff" bordercolor="#666666" borderopacity="1" objecttolerance="10" gridtolerance="10" guidetolerance="10" aab:pageopacity="0" aab:pageshadow="2" aab:window-width="1366" aab:window-height="706" id="namedview3053" showgrid="true" aab:zoom="5.6568543" aab:cx="35.742573" aab:cy="39.38026" aab:window-x="-8" aab:window-y="-8" aab:window-maximized="1" aab:current-layer="Layer_1" xmlns:aaa="http://sodipodi.sourceforge.net/DTD/sodipodi-0.dtd" xmlns:aab="http://www.inkscape.org/namespaces/inkscape"/>
      <polygon points="0,0 8,8 -8,8 " id="polygon3051" transform="translate(0.00390625,0.71874995)" style="stroke-width:1.5;fill:#19938b;stroke:#19938b;" stroke="#19938b" stroke-width="1.5" fill="#19938b"/>
    </g>
  </g>
  <g id="Connector-jv3p623r-ko386" transform="translate(-20,-80)">
    <g id="graphics">
      <path d="M 340 504.95000000000005 L 430 504.95000000000005 " fill="none" stroke="#19938b" stroke-width="1.5" stroke-dasharray="5,5"/>
    </g>
    <g id="toIcon" transform="translate(430,504.95) rotate(90)">
      <metadata id="metadata3057">
        <aaa:RDF xmlns:aaa="http://www.w3.org/1999/02/22-rdf-syntax-ns#"/>
      </metadata>
      <aaa:namedview pagecolor="#ffffff" bordercolor="#666666" borderopacity="1" objecttolerance="10" gridtolerance="10" guidetolerance="10" aab:pageopacity="0" aab:pageshadow="2" aab:window-width="1366" aab:window-height="706" id="namedview3053" showgrid="true" aab:zoom="5.6568543" aab:cx="35.742573" aab:cy="39.38026" aab:window-x="-8" aab:window-y="-8" aab:window-maximized="1" aab:current-layer="Layer_1" xmlns:aaa="http://sodipodi.sourceforge.net/DTD/sodipodi-0.dtd" xmlns:aab="http://www.inkscape.org/namespaces/inkscape"/>
      <polygon points="0,0 8,8 -8,8 " id="polygon3051" transform="translate(0.00390625,0.71874995)" style="stroke-width:1.5;fill:#19938b;stroke:#19938b;" stroke="#19938b" stroke-width="1.5" fill="#19938b"/>
    </g>
  </g>
  <g id="Connector-jv3p623r-ko388" transform="translate(-20,-80)">
    <g id="graphics">
      <path d="M 495 464.95000000000005 L 495 352.45000000000005 " fill="none" stroke="#19938b" stroke-width="1.5" stroke-dasharray="5,5"/>
    </g>
    <g id="toIcon" transform="translate(495,352.45)">
      <metadata id="metadata3057">
        <aaa:RDF xmlns:aaa="http://www.w3.org/1999/02/22-rdf-syntax-ns#"/>
      </metadata>
      <aaa:namedview pagecolor="#ffffff" bordercolor="#666666" borderopacity="1" objecttolerance="10" gridtolerance="10" guidetolerance="10" aab:pageopacity="0" aab:pageshadow="2" aab:window-width="1366" aab:window-height="706" id="namedview3053" showgrid="true" aab:zoom="5.6568543" aab:cx="35.742573" aab:cy="39.38026" aab:window-x="-8" aab:window-y="-8" aab:window-maximized="1" aab:current-layer="Layer_1" xmlns:aaa="http://sodipodi.sourceforge.net/DTD/sodipodi-0.dtd" xmlns:aab="http://www.inkscape.org/namespaces/inkscape"/>
      <polygon points="0,0 8,8 -8,8 " id="polygon3051" transform="translate(0.00390625,0.71874995)" style="stroke-width:1.5;fill:#19938b;stroke:#19938b;" stroke="#19938b" stroke-width="1.5" fill="#19938b"/>
    </g>
  </g>
</svg>